<svg xmlns="http://www.w3.org/2000/svg" width="76" height="76" viewBox="0 0 76 76">
  <g id="Hover_Design_guidelines" data-name="Hover Design guidelines" transform="translate(9948 -2215)">
    <g id="Group_12796" data-name="Group 12796" transform="translate(-10059 1362)">
      <rect id="Rectangle_1738" data-name="Rectangle 1738" width="76" height="76" rx="12" transform="translate(111 853)" fill="#ff5f2e"/>
      <g id="design_services_black_24dp_2_" data-name="design_services_black_24dp (2)" transform="translate(121.5 863.5)">
        <g id="Group_14442" data-name="Group 14442">
          <rect id="Rectangle_1922" data-name="Rectangle 1922" width="55" height="55" fill="none"/>
        </g>
        <g id="Group_14444" data-name="Group 14444" transform="translate(6.829 6.926)">
          <g id="Group_14443" data-name="Group 14443">
            <path id="Path_10493" data-name="Path 10493" d="M33.14,22.315l3.574-3.574L28.178,10.2,24.6,13.778l-9.425-9.4a4.562,4.562,0,0,0-6.442,0L4.411,8.7a4.562,4.562,0,0,0,0,6.442l9.4,9.4L3,35.382v8.537h8.537L22.373,33.083l9.4,9.4a4.559,4.559,0,0,0,6.442,0l4.325-4.325a4.562,4.562,0,0,0,0-6.442Zm-16.072-1-9.425-9.4,4.3-4.325h0l2.891,2.891-2.686,2.709,3.21,3.21,2.709-2.709,3.3,3.3ZM35.007,39.275l-9.4-9.4,4.325-4.325,3.3,3.3-2.709,2.709,3.21,3.21,2.709-2.709,2.891,2.891Z" transform="translate(-3 -2.945)" fill="#fff"/>
            <path id="Path_10494" data-name="Path 10494" d="M27.833,12.2a2.267,2.267,0,0,0,0-3.21L22.506,3.659a2.3,2.3,0,0,0-3.21,0L15.13,7.825l8.537,8.537Z" transform="translate(12.483 -3.001)" fill="#fff"/>
          </g>
        </g>
      </g>
    </g>
  </g>
</svg>
