<svg xmlns="http://www.w3.org/2000/svg" width="76" height="76" viewBox="0 0 76 76">
  <g id="Hover_Deployment" data-name="Hover Deployment" transform="translate(9350 -2215)">
    <g id="Group_12796" data-name="Group 12796" transform="translate(-9461 1362)">
      <path id="Path_10652" data-name="Path 10652" d="M12,0H64A12,12,0,0,1,76,12V64A12,12,0,0,1,64,76H12A12,12,0,0,1,0,64V12A12,12,0,0,1,12,0Z" transform="translate(111 853)" fill="#ff5f2e"/>
      <g id="rocket_launch_black_24dp" transform="translate(122 863.032)">
        <g id="Group_14439" data-name="Group 14439" transform="translate(0 0.26)">
          <g id="Group_14522" data-name="Group 14522">
            <rect id="Rectangle_1921" data-name="Rectangle 1921" width="55" height="55" transform="translate(0 -0.293)" fill="none"/>
          </g>
        </g>
        <g id="Group_14441" data-name="Group 14441" transform="translate(4.581 5.688)">
          <g id="Group_14440" data-name="Group 14440">
            <path id="Path_10492" data-name="Path 10492" d="M18.469,11.337c-4.673,5.245-7.88,12.781-8.177,13.492L2,21.278,11.277,12a4.612,4.612,0,0,1,4.146-1.26l3.046.6ZM23,35.732s8.567-3.55,13.492-8.475C48.865,14.887,46.8,5.221,46.14,3.045,43.964,2.358,34.3.319,21.928,12.688,17,17.613,13.453,26.18,13.453,26.18Zm14.843-5.016c-5.245,4.673-12.781,7.88-13.492,8.177l3.55,8.292,9.277-9.277a4.612,4.612,0,0,0,1.26-4.146l-.6-3.046ZM18.034,38.022a6.855,6.855,0,0,1-2.016,4.856C13.315,45.581,2,47.185,2,47.185S3.6,35.869,6.306,33.166a6.867,6.867,0,0,1,11.728,4.856ZM27.2,17.407a4.581,4.581,0,1,1,4.581,4.581A4.595,4.595,0,0,1,27.2,17.407Z" transform="translate(-2 -2.486)" fill="#fff"/>
          </g>
        </g>
      </g>
    </g>
  </g>
</svg>
