<svg width="76" height="76" viewBox="0 0 76 76" fill="none" xmlns="http://www.w3.org/2000/svg">
<rect width="76" height="76" rx="12" fill="#FF5F2E"/>
<mask id="mask0_1_161" style="mask-type:luminance" maskUnits="userSpaceOnUse" x="10" y="30" width="57" height="17">
<path d="M66.529 30H10V46.155H66.529V30Z" fill="white"/>
</mask>
<g mask="url(#mask0_1_161)">
<path d="M13.609 30.369L18.532 39.099C19.18 40.332 19.738 41.43 20.197 42.276C20.179 41.106 20.152 39.882 20.152 38.514V30.369H22.852V45.795H19.243L14.617 37.713C13.861 36.201 13.123 34.905 12.655 33.978C12.7 35.148 12.7 36.678 12.7 38.019V45.795H10V30.369H13.609Z" fill="white"/>
<path d="M31.474 43.869C33.184 43.869 34.345 43.131 34.345 41.601C34.345 39.981 32.959 39.639 30.997 39.027C28.45 38.271 25.903 37.425 25.876 34.365C25.831 31.431 28.513 30 31.321 30C34.408 30 36.613 31.449 36.937 34.815H34.174C33.895 33.087 33.004 32.268 31.276 32.268C29.782 32.268 28.594 32.871 28.594 34.383C28.594 35.724 29.89 36.282 31.879 36.867C34.489 37.641 37.081 38.316 37.081 41.601C37.081 44.886 34.318 46.155 31.465 46.155C28.099 46.155 25.462 44.472 25.219 40.845H28.027C28.153 42.807 29.539 43.869 31.465 43.869H31.474Z" fill="white"/>
<path d="M46.522 46.074C41.77 46.074 38.683 42.726 38.683 38.082C38.683 33.438 41.797 30.09 46.549 30.09C50.419 30.09 52.75 32.079 53.695 35.148H50.977C50.158 33.312 48.727 32.43 46.549 32.43C43.417 32.43 41.455 34.896 41.455 38.091C41.455 41.286 43.417 43.752 46.549 43.752C48.943 43.752 50.347 42.672 50.977 41.007H53.695C52.957 43.986 50.365 46.083 46.522 46.083V46.074Z" fill="white"/>
<path d="M61.066 30.216C64 30.216 65.881 31.746 65.881 34.257C65.881 35.985 65.08 36.912 63.955 37.56C65.638 38.226 66.529 39.459 66.529 41.403C66.547 43.869 64.648 46.092 61.219 46.092C57.79 46.092 55.837 44.454 55.558 41.556L55.54 41.322H58.177L58.195 41.52C58.366 43.095 59.554 43.941 61.156 43.941C62.884 43.941 63.982 42.843 63.982 41.259C63.982 39.675 62.704 38.82 60.85 38.82H59.896V36.615C60.31 36.615 60.607 36.615 60.994 36.597C62.38 36.507 63.28 35.886 63.28 34.527C63.28 33.168 62.398 32.412 61.03 32.412C59.662 32.412 58.888 33.168 58.717 34.266L58.672 34.59H56.098C56.251 31.998 58.042 30.225 61.048 30.225H61.066V30.216Z" fill="white"/>
</g>
</svg>
