<svg width="76" height="76" viewBox="0 0 76 76" fill="none" xmlns="http://www.w3.org/2000/svg">
<rect width="76" height="76" rx="12" fill="#DADCE0"/>
<mask id="mask0_1_162" style="mask-type:luminance" maskUnits="userSpaceOnUse" x="10" y="29" width="57" height="18">
<path d="M66.6695 29.8975H10.1405V46.0525H66.6695V29.8975Z" fill="white"/>
</mask>
<g mask="url(#mask0_1_162)">
<path d="M13.7495 30.2665L18.6725 38.9965C19.3205 40.2295 19.8785 41.3275 20.3375 42.1735C20.3195 41.0035 20.2925 39.7795 20.2925 38.4115V30.2665H22.9925V45.6925H19.3835L14.7575 37.6105C14.0015 36.0985 13.2635 34.8025 12.7955 33.8755C12.8405 35.0455 12.8405 36.5755 12.8405 37.9165V45.6925H10.1405V30.2665H13.7495Z" fill="#3C4043"/>
<path d="M31.6145 43.7665C33.3245 43.7665 34.4855 43.0285 34.4855 41.4985C34.4855 39.8785 33.0995 39.5365 31.1375 38.9245C28.5905 38.1685 26.0435 37.3225 26.0165 34.2625C25.9715 31.3285 28.6535 29.8975 31.4615 29.8975C34.5485 29.8975 36.7535 31.3465 37.0775 34.7125H34.3145C34.0355 32.9845 33.1445 32.1655 31.4165 32.1655C29.9225 32.1655 28.7345 32.7685 28.7345 34.2805C28.7345 35.6215 30.0305 36.1795 32.0195 36.7645C34.6295 37.5385 37.2215 38.2135 37.2215 41.4985C37.2215 44.7835 34.4585 46.0525 31.6055 46.0525C28.2395 46.0525 25.6025 44.3695 25.3595 40.7425H28.1675C28.2935 42.7045 29.6795 43.7665 31.6055 43.7665H31.6145Z" fill="#3C4043"/>
<path d="M46.6625 45.9715C41.9105 45.9715 38.8235 42.6235 38.8235 37.9795C38.8235 33.3355 41.9375 29.9875 46.6895 29.9875C50.5595 29.9875 52.8905 31.9765 53.8355 35.0455H51.1175C50.2985 33.2095 48.8675 32.3275 46.6895 32.3275C43.5575 32.3275 41.5955 34.7935 41.5955 37.9885C41.5955 41.1835 43.5575 43.6495 46.6895 43.6495C49.0835 43.6495 50.4875 42.5695 51.1175 40.9045H53.8355C53.0975 43.8835 50.5055 45.9805 46.6625 45.9805V45.9715Z" fill="#3C4043"/>
<path d="M61.2065 30.1135C64.1405 30.1135 66.0215 31.6435 66.0215 34.1545C66.0215 35.8825 65.2205 36.8095 64.0955 37.4575C65.7785 38.1235 66.6695 39.3565 66.6695 41.3005C66.6875 43.7665 64.7885 45.9895 61.3595 45.9895C57.9305 45.9895 55.9775 44.3515 55.6985 41.4535L55.6805 41.2195H58.3175L58.3355 41.4175C58.5065 42.9925 59.6945 43.8385 61.2965 43.8385C63.0245 43.8385 64.1225 42.7405 64.1225 41.1565C64.1225 39.5725 62.8445 38.7175 60.9905 38.7175H60.0365V36.5125C60.4505 36.5125 60.7475 36.5125 61.1345 36.4945C62.5205 36.4045 63.4205 35.7835 63.4205 34.4245C63.4205 33.0655 62.5385 32.3095 61.1705 32.3095C59.8025 32.3095 59.0285 33.0655 58.8575 34.1635L58.8125 34.4875H56.2385C56.3915 31.8955 58.1825 30.1225 61.1885 30.1225H61.2065V30.1135Z" fill="#3C4043"/>
</g>
</svg>
