<svg width="76" height="76" viewBox="0 0 76 76" fill="none" xmlns="http://www.w3.org/2000/svg">
<rect width="76" height="76" rx="12" fill="#DADCE0"/>
<mask id="mask0_1_163" style="mask-type:luminance" maskUnits="userSpaceOnUse" x="27" y="17" width="21" height="42">
<path d="M48 17H27V58.805H48V17Z" fill="white"/>
</mask>
<g mask="url(#mask0_1_163)">
<path d="M36.96 28.67C39.975 28.67 42.42 26.225 42.42 23.21C42.42 20.195 39.975 17.75 36.96 17.75C33.945 17.75 31.5 20.195 31.5 23.21C31.5 26.225 33.945 28.67 36.96 28.67Z" fill="#3C4043" stroke="#3C4043" stroke-miterlimit="10"/>
<path d="M28.56 31.355C27.705 31.355 27 32.06 27 32.915L28.245 44.15C28.245 45.005 28.95 45.71 29.805 45.71H31.11L33.09 57.245C33.195 58.175 33.735 58.805 34.53 58.805H36.36V31.355H28.56Z" fill="#3C4043"/>
<path d="M46.44 31.355H38.64V58.805H40.74C41.535 58.805 42.03 58.175 42.18 57.245L44.16 45.71H45.195C46.05 45.71 46.755 45.005 46.755 44.15L48 32.915C48 32.06 47.295 31.355 46.44 31.355Z" fill="#3C4043"/>
</g>
</svg>
